<?xml version="1.0" encoding="UTF-8" standalone="no"?>
<svg
   xmlns:dc="http://purl.org/dc/elements/1.1/"
   xmlns:cc="http://creativecommons.org/ns#"
   xmlns:rdf="http://www.w3.org/1999/02/22-rdf-syntax-ns#"
   xmlns:svg="http://www.w3.org/2000/svg"
   xmlns="http://www.w3.org/2000/svg"
   xmlns:sodipodi="http://sodipodi.sourceforge.net/DTD/sodipodi-0.dtd"
   xmlns:inkscape="http://www.inkscape.org/namespaces/inkscape"
   viewBox="0 0 309.06199 309.08493"
   version="1.1"
   id="svg270"
   sodipodi:docname="micronaut.svg"
   width="309.06198"
   height="309.08493"
   inkscape:version="1.0.1 (3bc2e813f5, 2020-09-07)">
  <metadata
     id="metadata276">
    <rdf:RDF>
      <cc:Work
         rdf:about="">
        <dc:format>image/svg+xml</dc:format>
        <dc:type
           rdf:resource="http://purl.org/dc/dcmitype/StillImage" />
        <dc:title>micronaut</dc:title>
      </cc:Work>
    </rdf:RDF>
  </metadata>
  <defs
     id="defs274" />
  <sodipodi:namedview
     pagecolor="#00ffff"
     bordercolor="#666666"
     borderopacity="1"
     objecttolerance="10"
     gridtolerance="10"
     guidetolerance="10"
     inkscape:pageopacity="0"
     inkscape:pageshadow="2"
     inkscape:window-width="1891"
     inkscape:window-height="1292"
     id="namedview272"
     showgrid="true"
     fit-margin-top="0"
     fit-margin-left="0"
     fit-margin-right="0"
     fit-margin-bottom="0"
     inkscape:zoom="2.2248701"
     inkscape:cx="157.11589"
     inkscape:cy="202.277"
     inkscape:window-x="72"
     inkscape:window-y="30"
     inkscape:window-maximized="0"
     inkscape:current-layer="svg270">
    <inkscape:grid
       type="xygrid"
       id="grid278"
       originx="-104.21261"
       originy="0.017997797" />
  </sodipodi:namedview>
  <title
     id="title170">micronaut</title>
  <path
     d="m 205.98739,151.136 a 6.194,6.194 0 1 0 5.984,-4.6 6.17,6.17 0 0 0 -5.984,4.6 z"
     style="fill:#ffffff"
     id="path172" />
  <path
     d="m 201.77139,118.267 a 6.207,6.207 0 0 0 1.6,12.2 v 0 a 6.207,6.207 0 1 0 0,-12.413 6.278,6.278 0 0 0 -1.6,0.213 z"
     style="fill:#ffffff"
     id="path174" />
  <path
     d="m 177.30239,108.284 a 6.2,6.2 0 1 0 -1.818,-4.39 6.166,6.166 0 0 0 1.818,4.39 z"
     style="fill:#ffffff"
     id="path176" />
  <path
     d="m 151.11739,103.099 a 6.2,6.2 0 0 0 1.6,0.212 v 0 a 6.206,6.206 0 0 0 5.371,-9.309002 6.232,6.232 0 0 0 -5.38,-3.1 6.206,6.206 0 0 0 -1.6,12.200002 z"
     style="fill:#ffffff"
     id="path178" />
  <path
     d="m 122.63639,99.717998 a 6.2,6.2 0 0 0 1.611,12.200002 6.286,6.286 0 0 0 1.6,-0.211 6.2057764,6.2057764 0 1 0 -3.211,-11.989002 z"
     style="fill:#ffffff"
     id="path180" />
  <path
     d="m 103.87539,133.601 a 6.205,6.205 0 1 0 -4.386998,-1.818 6.164,6.164 0 0 0 4.386998,1.818 z"
     style="fill:#ffffff"
     id="path182" />
  <path
     d="m 103.07939,157.96 a 6.193,6.193 0 1 0 -5.987998,4.608 6.218,6.218 0 0 0 5.987998,-4.608 z"
     style="fill:#ffffff"
     id="path184" />
  <path
     d="m 107.29239,190.841 a 6.215,6.215 0 1 0 -1.6,0.209 6.221,6.221 0 0 0 1.6,-0.209 z"
     style="fill:#ffffff"
     id="path186" />
  <path
     d="m 127.37439,199.003 a 6.209,6.209 0 1 0 4.383,1.819 6.171,6.171 0 0 0 -4.383,-1.819 z"
     style="fill:#ffffff"
     id="path188" />
  <path
     d="m 157.94739,206.008 a 6.2,6.2 0 1 0 3.766,2.888 6.2,6.2 0 0 0 -3.766,-2.888 z"
     style="fill:#ffffff"
     id="path190" />
  <path
     d="m 186.42939,209.394 a 6.2026545,6.2026545 0 1 0 -3.213,-11.982 6.2,6.2 0 0 0 -4.385,7.591 6.216,6.216 0 0 0 5.993,4.6 6.282,6.282 0 0 0 1.605,-0.209 z"
     style="fill:#ffffff"
     id="path192" />
  <path
     d="m 209.57739,177.318 a 6.212,6.212 0 1 0 0,8.778 6.184,6.184 0 0 0 0,-8.778 z"
     style="fill:#ffffff"
     id="path194" />
  <path
     d="m 233.90139,152.889 a 7.259,7.259 0 0 0 7.007,9.129 v 0 a 7.257,7.257 0 1 0 -7.008,-9.128 z"
     style="fill:#ffffff"
     id="path196" />
  <path
     d="m 227.56439,104.54 a 7.254,7.254 0 0 0 1.873,14.26 v 0 a 7.259,7.259 0 0 0 6.282,-3.628 7.259,7.259 0 0 0 -6.276,-10.881 7.324,7.324 0 0 0 -1.879,0.249 z"
     style="fill:#ffffff"
     id="path198" />
  <path
     d="m 197.89839,72.598998 a 7.253,7.253 0 0 0 0,14.506 v 0 a 7.253,7.253 0 1 0 0,-14.506 z"
     style="fill:#ffffff"
     id="path200" />
  <path
     d="m 152.86139,75.179998 a 7.2521487,7.2521487 0 0 0 3.758,-14.009 7.2521487,7.2521487 0 1 0 -3.758,14.009 z"
     style="fill:#ffffff"
     id="path202" />
  <path
     d="m 111.53139,72.393998 a 7.252,7.252 0 1 0 7,5.373 7.237,7.237 0 0 0 -7,-5.373 z"
     style="fill:#ffffff"
     id="path204" />
  <path
     d="m 79.836392,118.436 a 7.255,7.255 0 1 0 -5.13,-2.124 7.208,7.208 0 0 0 5.13,2.124 z"
     style="fill:#ffffff"
     id="path206" />
  <path
     d="m 75.162392,156.224 a 7.254,7.254 0 1 0 -7,5.374 7.281,7.281 0 0 0 7,-5.374 z"
     style="fill:#ffffff"
     id="path208" />
  <path
     d="m 79.629392,204.818 a 7.255,7.255 0 1 0 -7.008,-5.379 7.294,7.294 0 0 0 7.008,5.379 z"
     style="fill:#ffffff"
     id="path210" />
  <path
     d="m 111.17039,236.505 a 7.181,7.181 0 0 0 5.122,-2.122 7.255,7.255 0 1 0 -12.381,-5.128 7.254,7.254 0 0 0 7.259,7.25 z"
     style="fill:#ffffff"
     id="path212" />
  <path
     d="m 156.20039,233.925 a 7.251,7.251 0 0 0 -8.157,10.63 7.253,7.253 0 1 0 8.157,-10.63 z"
     style="fill:#ffffff"
     id="path214" />
  <path
     d="m 197.54039,236.712 a 7.256,7.256 0 1 0 -7,-5.373 7.208,7.208 0 0 0 7,5.373 z"
     style="fill:#ffffff"
     id="path216" />
  <path
     d="m 229.23239,190.667 a 7.251,7.251 0 1 0 5.128,2.123 7.207,7.207 0 0 0 -5.128,-2.123 z"
     style="fill:#ffffff"
     id="path218" />
  <path
     d="m 272.88739,158.882 a 9.314,9.314 0 1 0 5.654,4.34 9.315,9.315 0 0 0 -5.654,-4.34 z"
     style="fill:#ffffff"
     id="path220" />
  <path
     d="m 261.61039,98.802998 a 9.323,9.323 0 1 0 8.991,6.908002 9.395,9.395 0 0 0 -8.991,-6.908002 z"
     style="fill:#ffffff"
     id="path222" />
  <path
     d="m 224.04239,70.127998 a 9.317,9.317 0 1 0 -6.588,-2.73 9.255,9.255 0 0 0 6.588,2.73 z"
     style="fill:#ffffff"
     id="path224" />
  <path
     d="m 165.44739,47.617998 a 9.321,9.321 0 1 0 -6.59,-11.417 9.328,9.328 0 0 0 6.59,11.417 z"
     style="fill:#ffffff"
     id="path226" />
  <path
     d="m 108.09939,56.801998 a 9.353,9.353 0 0 0 2.417,-0.321 9.319,9.319 0 0 0 -2.41,-18.321 9.3210007,9.3210007 0 0 0 -0.007,18.642 z"
     style="fill:#ffffff"
     id="path228" />
  <path
     d="m 70.109392,85.038998 a 9.312,9.312 0 1 0 -2.73,6.592 9.254,9.254 0 0 0 2.73,-6.592 z"
     style="fill:#ffffff"
     id="path230" />
  <path
     d="m 36.181392,150.224 a 9.32,9.32 0 1 0 -6.59,-11.416 9.315,9.315 0 0 0 6.59,11.416 z"
     style="fill:#ffffff"
     id="path232" />
  <path
     d="m 45.046392,191.978 a 9.324,9.324 0 1 0 2.417,-0.318 9.329,9.329 0 0 0 -2.417,0.318 z"
     style="fill:#ffffff"
     id="path234" />
  <path
     d="m 85.017392,257.612 a 9.319,9.319 0 1 0 -6.584,-2.728 9.277,9.277 0 0 0 6.584,2.728 z"
     style="fill:#ffffff"
     id="path236" />
  <path
     d="m 138.78739,279.5 a 9.317,9.317 0 0 0 11.413,-6.587 9.32,9.32 0 1 0 -11.413,6.587 z"
     style="fill:#ffffff"
     id="path238" />
  <path
     d="m 200.95539,270.944 v 0 a 9.32,9.32 0 1 0 -2.41,-18.318 9.318,9.318 0 0 0 2.408,18.318 z"
     style="fill:#ffffff"
     id="path240" />
  <path
     d="m 254.86339,230.658 a 9.316,9.316 0 1 0 -6.585,2.729 9.25,9.25 0 0 0 6.585,-2.729 z"
     style="fill:#ffffff"
     id="path242" />
  <path
     d="m 308.69639,195.858 a 10.836,10.836 0 1 0 -10.474,8.045 10.867,10.867 0 0 0 10.474,-8.045 z"
     style="fill:#ffffff"
     id="path244" />
  <path
     d="m 298.21339,126.907 a 10.94,10.94 0 0 0 2.809,-0.371 10.844,10.844 0 1 0 -2.809,0.371 z"
     style="fill:#ffffff"
     id="path246" />
  <path
     d="m 259.71539,60.217998 a 10.862,10.862 0 1 0 -7.669,-3.18 10.786,10.786 0 0 0 7.669,3.18 z"
     style="fill:#ffffff"
     id="path248" />
  <path
     d="m 190.22439,21.348998 a 10.912,10.912 0 0 0 2.813,0.373 v 0 a 10.861,10.861 0 1 0 -2.815,-0.373 z"
     style="fill:#ffffff"
     id="path250" />
  <path
     d="m 116.02439,21.717998 v 0 a 10.85,10.85 0 1 0 -10.471,-8.043 10.86,10.86 0 0 0 10.473,8.043 z"
     style="fill:#ffffff"
     id="path252" />
  <path
     d="m 49.351392,60.217998 a 10.844,10.844 0 1 0 -7.676,-3.176 10.767,10.767 0 0 0 7.676,3.176 z"
     style="fill:#ffffff"
     id="path254" />
  <path
     d="m 8.0433924,126.532 a 10.847,10.847 0 0 0 2.8169996,0.375 v 0 a 10.869,10.869 0 1 0 -2.8189996,-0.375 z"
     style="fill:#ffffff"
     id="path256" />
  <path
     d="m 13.656392,203.53 a 10.85,10.85 0 0 0 -2.789,-21.329 10.9,10.9 0 0 0 -9.4149996,5.43 10.847,10.847 0 0 0 12.1999996,15.9 z"
     style="fill:#ffffff"
     id="path258" />
  <path
     d="m 49.346392,248.884 a 10.851,10.851 0 0 0 0,21.7 v 0 a 10.851,10.851 0 1 0 0,-21.7 z"
     style="fill:#ffffff"
     id="path260" />
  <path
     d="m 125.42739,292.811 a 10.768,10.768 0 0 0 -6.59,-5.051 10.835,10.835 0 0 0 -13.287,7.668 10.85,10.85 0 0 0 7.679,13.28 10.812,10.812 0 0 0 13.279,-7.657 10.777,10.777 0 0 0 -1.081,-8.24 z"
     style="fill:#ffffff"
     id="path262" />
  <path
     d="m 195.83739,308.705 a 10.84,10.84 0 1 0 -5.612,-20.941 10.84,10.84 0 1 0 5.612,20.941 z"
     style="fill:#ffffff"
     id="path264" />
  <path
     d="m 248.86539,259.734 a 10.859,10.859 0 1 0 3.181,-7.667 10.769,10.769 0 0 0 -3.181,7.667 z"
     style="fill:#ffffff"
     id="path266" />
  <path
     d="m 184.36639,163.354 1.421,-1.581 c 0.267,-0.271 0.53,-0.539 0.8,-0.811 l -0.066,-0.008 0.079,-0.088 a 9.293,9.293 0 0 0 -1.347,-0.115 3.548,3.548 0 0 0 -2.77,1.129 28.743,28.743 0 0 1 -3.386,2.917 35.513,35.513 0 0 1 -3.474,2.271 4.327,4.327 0 0 1 -2.212,0.588 5.99,5.99 0 0 1 -1.459,-0.193 2.53,2.53 0 0 1 -2.136,-2.663 7.612,7.612 0 0 1 0.124,-1.53 c 1.231,-5.98 4.663,-22.465 5.5,-26.929 0.051,-0.247 0.1,-0.46 0.129,-0.618 h -0.018 l 0.017,-0.1 -4.217,0.1 h -6.97 c -0.018,0.055 -0.037,0.109 -0.056,0.164 h -0.105 a 4.625,4.625 0 0 0 -0.153,0.5 l -5.88,27.84 c -0.059,0.283 -0.141,0.67 -0.315,0.77 -0.382,0.225 -0.761,0.466 -1.141,0.7 a 15.031,15.031 0 0 1 -3.473,1.8 4.813,4.813 0 0 1 -1.389,0.224 2.82,2.82 0 0 1 -2.165,-0.9 3.931,3.931 0 0 1 -0.793,-3.081 c 0.045,-0.371 4.573,-21.939 5.6,-27.3 0.067,-0.315 0.12,-0.566 0.156,-0.734 h -0.018 c 0,-0.031 0.013,-0.071 0.017,-0.1 l -11.345,0.078 -11.109,52.34 c 0,0 0.927,-0.21 1.85,-0.43 2.3,-0.551 6.341,-1.516 8.554,-1.961 1.368,-0.283 1.937,-0.882 2.032,-2.134 a 12.014,12.014 0 0 1 0.348,-1.859 l 0.181,-0.78 0.576,-2.7 0.595,-3.142 c 4.446,-0.194 7.556,-2.809 10.566,-5.336 a 10.545,10.545 0 0 0 1.12,-1.061 l 0.241,-0.2 a 6.991,6.991 0 0 0 4.82,5.792 14.066,14.066 0 0 0 4.383,0.77 9.85,9.85 0 0 0 5.789,-1.843 59.7,59.7 0 0 0 6.042,-4.815 c 1.724,-1.579 3.371,-3.256 5.057,-4.971 z"
     style="fill:#ffffff"
     id="path268" />
</svg>
