<svg id="Layer_1" xmlns="http://www.w3.org/2000/svg" viewBox="-146 226 50 50"><style>.st0{fill:#68bd45}.st1{fill:#fff}</style><path class="st0" d="M-121 276c-13.8 0-25-11.2-25-25s11.2-25 25-25 25 11.2 25 25-11.2 25-25 25z"/><path class="st1" d="M-107.3 259.7c5-5.8 3.1-15.8 1.4-22.2-2.1 3.8-7 6.5-11.1 7.2-3.8.7-8-.4-11.6.7-8.1 2.5-8.6 12-4.4 14.4l.2.2s7.5-.8 11.1-1.9c5.3-1.6 11.3-5.9 13.6-11.3-1.4 5.7-6.6 10.8-11.7 13-2.7 1.2-4.7 1.5-9.2 2.6-1.1.3-2.1.7-3 1.4 5-3.2 18.6 3 24.7-4.1zM-135.7 264.5c1.2 0 2.1-1 2.1-2.2 0-1.2-1-2.1-2.2-2.1-1.2 0-2.1 1-2.1 2.2.1 1.2 1 2.1 2.2 2.1z"/></svg>